<?xml version="1.0" encoding="UTF-8" standalone="no" ?>
<!DOCTYPE svg PUBLIC "-//W3C//DTD SVG 1.1//EN" "http://www.w3.org/Graphics/SVG/1.1/DTD/svg11.dtd">
<svg xmlns="http://www.w3.org/2000/svg" xmlns:xlink="http://www.w3.org/1999/xlink" version="1.1" width="1280" height="1024" viewBox="0 0 1280 1024" xml:space="preserve">
<desc>Created with Fabric.js 5.3.0</desc>
<defs>
</defs>
<g transform="matrix(1 0 0 1 640 512)" id="background-logo"  >
<rect style="stroke: none; stroke-width: 0; stroke-dasharray: none; stroke-linecap: butt; stroke-dashoffset: 0; stroke-linejoin: miter; stroke-miterlimit: 4; fill: rgb(255,255,255); fill-opacity: 0; fill-rule: nonzero; opacity: 1;"  paint-order="stroke"  x="-640" y="-512" rx="0" ry="0" width="1280" height="1024" />
</g>
<g transform="matrix(1.9211538461538462 0 0 1.9211538461538462 649.4229416768702 384.98547892236894)" id="text-logo"  >
<g style=""  paint-order="stroke"   >
		<g transform="matrix(1 0 0 1 0 0)" id="text-logo-path-0"  >
<path style="stroke: rgb(255,255,255); stroke-width: 0; stroke-dasharray: none; stroke-linecap: butt; stroke-dashoffset: 0; stroke-linejoin: miter; stroke-miterlimit: 4; fill: rgb(11,50,145); fill-rule: nonzero; opacity: 1;"  paint-order="stroke"  transform=" translate(-156.67, 7.35)" d="M 2.1 -14.7 L 2.1 0 L 3.57 0 L 3.57 -6.72 L 7.14 -6.72 L 7.14 -7.98 L 3.57 -7.98 L 3.57 -13.44 L 8.19 -13.44 L 8.19 -14.7 Z M 16.07 -11.55 L 16.07 -3.15 C 16.07 -0.34 17.66 0.21 19.64 0.21 C 21.63 0.21 23.21 -0.38 23.21 -3.15 L 23.21 -11.55 C 23.21 -14.36 21.63 -14.91 19.64 -14.91 C 17.66 -14.91 16.07 -14.36 16.07 -11.55 Z M 17.54 -3.57 L 17.54 -11.13 C 17.54 -13.04 18.35 -13.44 19.64 -13.44 C 20.92 -13.44 21.73 -13.04 21.73 -11.13 L 21.73 -3.57 C 21.73 -1.66 20.92 -1.26 19.64 -1.26 C 18.35 -1.26 17.54 -1.66 17.54 -3.57 Z M 32.03 -11.55 L 32.03 -3.15 C 32.03 -0.34 33.62 0.21 35.59 0.21 C 37.59 0.21 39.17 -0.38 39.17 -3.15 L 39.17 -11.55 C 39.17 -14.36 37.59 -14.91 35.59 -14.91 C 33.62 -14.91 32.03 -14.36 32.03 -11.55 Z M 33.5 -3.57 L 33.5 -11.13 C 33.5 -13.04 34.31 -13.44 35.59 -13.44 C 36.88 -13.44 37.7 -13.04 37.7 -11.13 L 37.7 -3.57 C 37.7 -1.66 36.88 -1.26 35.59 -1.26 C 34.31 -1.26 33.5 -1.66 33.5 -3.57 Z M 51.45 -14.7 L 48.3 -14.7 L 48.3 0 L 51.45 0 C 53.45 0 55.02 -0.59 55.02 -3.36 L 55.02 -11.34 C 55.02 -14.15 53.45 -14.7 51.45 -14.7 Z M 49.77 -13.44 L 51.45 -13.44 C 52.73 -13.44 53.55 -13.04 53.55 -11.13 L 53.55 -3.57 C 53.55 -1.66 52.73 -1.26 51.45 -1.26 L 49.77 -1.26 Z M 79.07 -14.7 L 72.14 -14.7 L 72.14 -13.44 L 74.87 -13.44 L 74.87 0 L 76.34 0 L 76.34 -13.44 L 79.07 -13.44 Z M 87.05 0 L 88.52 0 L 88.52 -5.46 L 89.99 -5.46 L 92.61 0 L 94.19 0 L 91.5 -5.63 C 92.74 -5.94 93.56 -6.8 93.56 -8.82 L 93.56 -11.34 C 93.56 -14.15 91.98 -14.7 89.99 -14.7 L 87.05 -14.7 Z M 88.52 -6.72 L 88.52 -13.44 L 89.99 -13.44 C 91.27 -13.44 92.09 -13.04 92.09 -11.13 L 92.09 -9.03 C 92.09 -7.12 91.27 -6.72 89.99 -6.72 Z M 103.64 -3.57 L 103.64 -14.7 L 102.17 -14.7 L 102.17 -3.15 C 102.17 -0.34 103.76 0.21 105.73 0.21 C 107.73 0.21 109.31 -0.34 109.31 -3.15 L 109.31 -14.7 L 107.84 -14.7 L 107.84 -3.57 C 107.84 -1.66 107.02 -1.26 105.73 -1.26 C 104.45 -1.26 103.64 -1.66 103.64 -3.57 Z M 123.9 -11.13 L 123.9 -9.03 L 125.37 -9.03 L 125.37 -11.55 C 125.37 -14.36 123.8 -14.91 121.8 -14.91 C 119.83 -14.91 118.23 -14.36 118.23 -11.55 L 118.23 -3.15 C 118.23 -0.34 119.83 0.21 121.8 0.21 C 123.8 0.21 125.37 -0.38 125.37 -3.15 L 125.37 -4.03 L 123.9 -4.03 L 123.9 -3.57 C 123.9 -1.66 123.08 -1.26 121.8 -1.26 C 120.52 -1.26 119.7 -1.66 119.7 -3.57 L 119.7 -11.13 C 119.7 -13.04 120.52 -13.44 121.8 -13.44 C 123.08 -13.44 123.9 -13.04 123.9 -11.13 Z M 134.32 -14.7 L 134.32 0 L 135.79 0 L 135.79 -6.22 L 136.23 -6.91 L 139.78 0 L 141.35 0 L 137.09 -8.29 L 141.06 -14.7 L 139.48 -14.7 L 135.79 -8.76 L 135.79 -14.7 Z M 167.77 -14.7 L 165.67 -14.7 L 163.17 -5.71 L 160.67 -14.7 L 158.57 -14.7 L 158.57 0 L 160.04 0 L 160.04 -11.68 L 162.41 -3.15 L 163.93 -3.15 L 166.3 -11.68 L 166.3 0 L 167.77 0 Z M 175.96 0 L 177.43 0 L 178.27 -3.99 L 182.03 -3.99 L 182.87 0 L 184.34 0 L 181.25 -14.7 L 179.05 -14.7 Z M 178.54 -5.25 L 180.16 -12.96 L 181.78 -5.25 Z M 192.53 -14.7 L 192.53 0 L 194 0 L 194 -11.13 L 198.58 0 L 200.05 0 L 200.05 -14.7 L 198.58 -14.7 L 198.58 -3.57 L 194 -14.7 Z M 208.24 0 L 209.71 0 L 210.55 -3.99 L 214.3 -3.99 L 215.14 0 L 216.61 0 L 213.53 -14.7 L 211.32 -14.7 Z M 210.82 -5.25 L 212.44 -12.96 L 214.05 -5.25 Z M 231.63 -7.35 L 227.85 -7.35 L 227.85 -6.09 L 230.16 -6.09 L 230.16 -3.57 C 230.16 -1.66 229.34 -1.26 228.06 -1.26 C 226.78 -1.26 225.96 -1.66 225.96 -3.57 L 225.96 -11.13 C 225.96 -13.04 226.78 -13.44 228.06 -13.44 C 229.34 -13.44 230.16 -13.04 230.16 -11.13 L 230.16 -9.03 L 231.63 -9.03 L 231.63 -11.55 C 231.63 -14.36 230.05 -14.91 228.06 -14.91 C 226.09 -14.91 224.49 -14.36 224.49 -11.55 L 224.49 -3.15 C 224.49 -0.34 226.09 0.21 228.06 0.21 C 228.71 0.21 229.74 -0.06 230.31 -1.22 L 230.79 0 L 231.63 0 Z M 240.76 -14.7 L 240.76 0 L 247.06 0 L 247.06 -1.26 L 242.23 -1.26 L 242.23 -6.72 L 245.8 -6.72 L 245.8 -7.98 L 242.23 -7.98 L 242.23 -13.44 L 246.85 -13.44 L 246.85 -14.7 Z M 264.66 -14.7 L 262.56 -14.7 L 260.06 -5.71 L 257.56 -14.7 L 255.46 -14.7 L 255.46 0 L 256.93 0 L 256.93 -11.68 L 259.31 -3.15 L 260.82 -3.15 L 263.19 -11.68 L 263.19 0 L 264.66 0 Z M 274.11 -14.7 L 274.11 0 L 280.41 0 L 280.41 -1.26 L 275.58 -1.26 L 275.58 -6.72 L 279.15 -6.72 L 279.15 -7.98 L 275.58 -7.98 L 275.58 -13.44 L 280.2 -13.44 L 280.2 -14.7 Z M 288.81 -14.7 L 288.81 0 L 290.28 0 L 290.28 -11.13 L 294.86 0 L 296.33 0 L 296.33 -14.7 L 294.86 -14.7 L 294.86 -3.57 L 290.28 -14.7 Z M 311.24 -14.7 L 304.31 -14.7 L 304.31 -13.44 L 307.04 -13.44 L 307.04 0 L 308.51 0 L 308.51 -13.44 L 311.24 -13.44 Z" stroke-linecap="round" />
</g>
</g>
</g>
<g transform="matrix(1.9211538461538462 0 0 1.9211538461538462 638.5140354443288 475.3030709223689)" id="tagline-ee21041c-fd7a-4646-a088-df0a2334375e-logo"  >
<g style=""  paint-order="stroke"   >
		<g transform="matrix(1 0 0 1 0 0)" id="tagline-ee21041c-fd7a-4646-a088-df0a2334375e-logo-path-0"  >
<path style="stroke: none; stroke-width: 0; stroke-dasharray: none; stroke-linecap: butt; stroke-dashoffset: 0; stroke-linejoin: miter; stroke-miterlimit: 4; fill: rgb(11,50,145); fill-rule: nonzero; opacity: 1;"  paint-order="stroke"  transform=" translate(-151.32, 22.75)" d="M 16.25 0.65 C 22.36 0.65 27.3 -1.04 27.3 -9.75 L 27.3 -11.05 C 27.3 -21.52 9.75 -28.21 9.75 -34.45 C 9.75 -40.37 12.29 -41.6 16.25 -41.6 C 20.21 -41.6 22.75 -40.37 22.75 -34.45 L 22.75 -31.85 L 27.3 -31.85 L 27.3 -35.75 C 27.3 -44.46 22.43 -46.15 16.25 -46.15 C 10.14 -46.15 5.2 -44.46 5.2 -35.75 L 5.2 -34.45 C 5.2 -25.09 22.75 -18.39 22.75 -11.05 C 22.75 -5.13 20.21 -3.9 16.25 -3.9 C 12.29 -3.9 9.75 -5.13 9.75 -11.05 L 9.75 -14.43 L 5.2 -14.43 L 5.2 -9.75 C 5.2 -1.17 10.08 0.65 16.25 0.65 Z M 67.53 -17.55 L 67.53 0 L 72.09 0 L 72.09 -17.55 L 82.75 -45.5 L 78.19 -45.5 L 69.81 -23.53 L 61.42 -45.5 L 56.88 -45.5 Z M 123.37 0.65 C 129.48 0.65 134.42 -1.04 134.42 -9.75 L 134.42 -11.05 C 134.42 -21.52 116.87 -28.21 116.87 -34.45 C 116.87 -40.37 119.41 -41.6 123.37 -41.6 C 127.34 -41.6 129.87 -40.37 129.87 -34.45 L 129.87 -31.85 L 134.42 -31.85 L 134.42 -35.75 C 134.42 -44.46 129.55 -46.15 123.37 -46.15 C 117.26 -46.15 112.32 -44.46 112.32 -35.75 L 112.32 -34.45 C 112.32 -25.09 129.87 -18.39 129.87 -11.05 C 129.87 -5.13 127.34 -3.9 123.37 -3.9 C 119.41 -3.9 116.87 -5.13 116.87 -11.05 L 116.87 -14.43 L 112.32 -14.43 L 112.32 -9.75 C 112.32 -1.17 117.2 0.65 123.37 0.65 Z M 185.77 -45.5 L 164.32 -45.5 L 164.32 -41.6 L 172.77 -41.6 L 172.77 0 L 177.32 0 L 177.32 -41.6 L 185.77 -41.6 Z M 216.97 -45.5 L 216.97 0 L 236.47 0 L 236.47 -3.9 L 221.52 -3.9 L 221.52 -20.8 L 232.57 -20.8 L 232.57 -24.7 L 221.52 -24.7 L 221.52 -41.6 L 235.82 -41.6 L 235.82 -45.5 Z M 297.44 -45.5 L 290.94 -45.5 L 283.21 -17.68 L 275.47 -45.5 L 268.97 -45.5 L 268.97 0 L 273.52 0 L 273.52 -36.14 L 280.87 -9.75 L 285.55 -9.75 L 292.89 -36.14 L 292.89 0 L 297.44 0 Z" stroke-linecap="round" />
</g>
</g>
</g>
<g transform="matrix(1.9211538461538462 0 0 1.9211538461538462 647.9369291768701 572.263818136495)" id="tagline-005cf826-304d-4354-b6b1-64ea9e071505-logo"  >
<g style=""  paint-order="stroke"   >
		<g transform="matrix(1 0 0 1 0 0)" id="tagline-005cf826-304d-4354-b6b1-64ea9e071505-logo-path-0"  >
<path style="stroke: none; stroke-width: 0; stroke-dasharray: none; stroke-linecap: butt; stroke-dashoffset: 0; stroke-linejoin: miter; stroke-miterlimit: 4; fill: rgb(11,50,145); fill-rule: nonzero; opacity: 1;"  paint-order="stroke"  transform=" translate(-111.96999999999998, 4.905013019577737)" d="M 4.79 -0.84 C 2.79 -0.84 1.61 -2.41 1.61 -4.9 C 1.61 -7.5 2.87 -8.96 4.79 -8.96 C 6.79 -8.96 7.97 -7.39 7.97 -4.9 C 7.97 -2.3 6.72 -0.84 4.79 -0.84 Z M 4.79 0 C 7.22 0 8.81 -1.88 8.81 -4.9 C 8.81 -7.8 7.31 -9.8 4.79 -9.8 C 2.37 -9.8 0.77 -7.92 0.77 -4.9 C 0.77 -2 2.27 0 4.79 0 Z M 14.69 0 L 14.69 -4.23 L 17.12 -4.23 L 19.28 0 L 20.23 0 L 18.06 -4.24 C 19.42 -4.4 20.31 -5.57 20.31 -7.03 C 20.31 -8.57 19.19 -9.8 17.77 -9.8 L 14.38 -9.8 C 14.11 -9.8 13.85 -9.51 13.85 -9.17 L 13.85 0 Z M 14.69 -5.07 L 14.69 -8.96 L 17.77 -8.96 C 18.72 -8.96 19.47 -8.12 19.47 -7.03 C 19.47 -5.88 18.77 -5.07 17.77 -5.07 Z M 25.35 0 L 28.15 0 C 31.01 0 32.59 -1.88 32.59 -4.9 C 32.59 -7.8 31.09 -9.8 28.15 -9.8 L 25.98 -9.8 C 25.65 -9.8 25.35 -9.51 25.35 -9.17 Z M 26.19 -0.84 L 26.19 -8.96 L 28.15 -8.96 C 30.56 -8.96 31.75 -7.41 31.75 -4.9 C 31.75 -2.3 30.51 -0.84 28.15 -0.84 Z M 37.63 0 L 43.27 0 C 43.51 0 43.69 -0.18 43.69 -0.42 C 43.69 -0.66 43.51 -0.84 43.27 -0.84 L 38.47 -0.84 L 38.47 -4.48 L 42.29 -4.48 C 42.53 -4.48 42.71 -4.66 42.71 -4.9 C 42.71 -5.14 42.53 -5.32 42.29 -5.32 L 38.47 -5.32 L 38.47 -8.96 L 43.27 -8.96 C 43.51 -8.96 43.69 -9.14 43.69 -9.38 C 43.69 -9.62 43.51 -9.8 43.27 -9.8 L 38.26 -9.8 C 37.93 -9.8 37.63 -9.51 37.63 -9.17 Z M 49.57 0 L 49.57 -4.23 L 52.01 -4.23 L 54.17 0 L 55.12 0 L 52.95 -4.24 C 54.31 -4.4 55.2 -5.57 55.2 -7.03 C 55.2 -8.57 54.08 -9.8 52.65 -9.8 L 49.27 -9.8 C 49 -9.8 48.73 -9.51 48.73 -9.17 L 48.73 0 Z M 49.57 -5.07 L 49.57 -8.96 L 52.65 -8.96 C 53.61 -8.96 54.36 -8.12 54.36 -7.03 C 54.36 -5.88 53.66 -5.07 52.65 -5.07 Z M 60.8 0 C 61.11 0 61.36 -0.25 61.36 -0.56 C 61.36 -0.87 61.11 -1.12 60.8 -1.12 C 60.49 -1.12 60.24 -0.87 60.24 -0.56 C 60.24 -0.25 60.49 0 60.8 0 Z M 73.54 0 L 73.54 -4.23 L 76.62 -4.23 C 78.13 -4.23 79.17 -5.46 79.17 -7.03 C 79.17 -8.57 78.05 -9.8 76.62 -9.8 L 73.23 -9.8 C 72.97 -9.8 72.7 -9.51 72.7 -9.17 L 72.7 0 Z M 73.54 -5.07 L 73.54 -8.96 L 76.62 -8.96 C 77.57 -8.96 78.33 -8.12 78.33 -7.03 C 78.33 -5.88 77.63 -5.07 76.62 -5.07 Z M 85.05 0 L 85.05 -4.23 L 87.49 -4.23 L 89.64 0 L 90.59 0 L 88.42 -4.24 C 89.78 -4.4 90.68 -5.57 90.68 -7.03 C 90.68 -8.57 89.56 -9.8 88.13 -9.8 L 84.74 -9.8 C 84.48 -9.8 84.21 -9.51 84.21 -9.17 L 84.21 0 Z M 85.05 -5.07 L 85.05 -8.96 L 88.13 -8.96 C 89.08 -8.96 89.84 -8.12 89.84 -7.03 C 89.84 -5.88 89.14 -5.07 88.13 -5.07 Z M 95.72 0 L 101.36 0 C 101.6 0 101.78 -0.18 101.78 -0.42 C 101.78 -0.66 101.6 -0.84 101.36 -0.84 L 96.56 -0.84 L 96.56 -4.48 L 100.38 -4.48 C 100.62 -4.48 100.8 -4.66 100.8 -4.9 C 100.8 -5.14 100.62 -5.32 100.38 -5.32 L 96.56 -5.32 L 96.56 -8.96 L 101.36 -8.96 C 101.6 -8.96 101.78 -9.14 101.78 -9.38 C 101.78 -9.62 101.6 -9.8 101.36 -9.8 L 96.35 -9.8 C 96.01 -9.8 95.72 -9.51 95.72 -9.17 Z M 107.66 0 L 107.66 -4.23 L 110.74 -4.23 C 112.25 -4.23 113.29 -5.46 113.29 -7.03 C 113.29 -8.57 112.17 -9.8 110.74 -9.8 L 107.35 -9.8 C 107.09 -9.8 106.82 -9.51 106.82 -9.17 L 106.82 0 Z M 107.66 -5.07 L 107.66 -8.96 L 110.74 -8.96 C 111.69 -8.96 112.45 -8.12 112.45 -7.03 C 112.45 -5.88 111.75 -5.07 110.74 -5.07 Z M 124.54 0 L 121.24 -9.27 C 121 -10 120.05 -9.98 119.81 -9.27 L 116.51 0 L 117.4 0 L 118.36 -2.67 L 122.7 -2.67 L 123.65 0 Z M 118.65 -3.51 L 120.53 -8.79 L 122.4 -3.51 Z M 130.42 0 L 130.42 -4.23 L 132.86 -4.23 L 135.02 0 L 135.97 0 L 133.8 -4.24 C 135.16 -4.4 136.05 -5.57 136.05 -7.03 C 136.05 -8.57 134.93 -9.8 133.5 -9.8 L 130.12 -9.8 C 129.85 -9.8 129.58 -9.51 129.58 -9.17 L 129.58 0 Z M 130.42 -5.07 L 130.42 -8.96 L 133.5 -8.96 C 134.46 -8.96 135.21 -8.12 135.21 -7.03 C 135.21 -5.88 134.51 -5.07 133.5 -5.07 Z M 141.09 0 L 146.73 0 C 146.97 0 147.15 -0.18 147.15 -0.42 C 147.15 -0.66 146.97 -0.84 146.73 -0.84 L 141.93 -0.84 L 141.93 -4.48 L 145.75 -4.48 C 145.99 -4.48 146.17 -4.66 146.17 -4.9 C 146.17 -5.14 145.99 -5.32 145.75 -5.32 L 141.93 -5.32 L 141.93 -8.96 L 146.73 -8.96 C 146.97 -8.96 147.15 -9.14 147.15 -9.38 C 147.15 -9.62 146.97 -9.8 146.73 -9.8 L 141.72 -9.8 C 141.39 -9.8 141.09 -9.51 141.09 -9.17 Z M 152.75 0 C 153.06 0 153.31 -0.25 153.31 -0.56 C 153.31 -0.87 153.06 -1.12 152.75 -1.12 C 152.45 -1.12 152.19 -0.87 152.19 -0.56 C 152.19 -0.25 152.45 0 152.75 0 Z M 165.21 -1.79 L 164.65 -1.18 C 165.42 -0.48 166.53 0 167.69 0 C 169.48 0 170.81 -1.19 170.81 -2.55 C 170.81 -4.3 169.32 -4.91 168.07 -5.4 C 166.8 -5.89 165.79 -6.27 165.79 -7.35 C 165.79 -8.27 166.81 -8.97 168 -8.97 C 168.73 -8.97 169.22 -8.78 169.69 -8.41 C 169.78 -8.36 169.85 -8.33 169.95 -8.33 C 170.17 -8.33 170.37 -8.53 170.37 -8.75 C 170.37 -8.88 170.31 -9 170.2 -9.09 C 169.6 -9.55 168.94 -9.81 168 -9.81 C 166.45 -9.81 164.95 -8.83 164.95 -7.35 C 164.95 -5.68 166.49 -5.11 167.76 -4.62 C 169.01 -4.13 169.97 -3.71 169.97 -2.55 C 169.97 -1.69 169.04 -0.84 167.69 -0.84 C 166.75 -0.84 165.87 -1.2 165.21 -1.79 Z M 175.85 0 L 181.5 0 C 181.73 0 181.92 -0.18 181.92 -0.42 C 181.92 -0.66 181.73 -0.84 181.5 -0.84 L 176.69 -0.84 L 176.69 -4.48 L 180.52 -4.48 C 180.75 -4.48 180.94 -4.66 180.94 -4.9 C 180.94 -5.14 180.75 -5.32 180.52 -5.32 L 176.69 -5.32 L 176.69 -8.96 L 181.5 -8.96 C 181.73 -8.96 181.92 -9.14 181.92 -9.38 C 181.92 -9.62 181.73 -9.8 181.5 -9.8 L 176.48 -9.8 C 176.15 -9.8 175.85 -9.51 175.85 -9.17 Z M 187.8 0 L 187.8 -4.23 L 190.23 -4.23 L 192.39 0 L 193.34 0 L 191.17 -4.24 C 192.53 -4.4 193.42 -5.57 193.42 -7.03 C 193.42 -8.57 192.3 -9.8 190.88 -9.8 L 187.49 -9.8 C 187.22 -9.8 186.96 -9.51 186.96 -9.17 L 186.96 0 Z M 187.8 -5.07 L 187.8 -8.96 L 190.88 -8.96 C 191.83 -8.96 192.58 -8.12 192.58 -7.03 C 192.58 -5.88 191.88 -5.07 190.88 -5.07 Z M 202.61 0 L 205.88 -9.23 C 205.9 -9.27 205.91 -9.32 205.91 -9.38 C 205.91 -9.59 205.73 -9.8 205.49 -9.8 C 205.31 -9.8 205.14 -9.67 205.09 -9.51 L 202.05 -0.95 L 199.01 -9.51 C 198.95 -9.66 198.79 -9.8 198.6 -9.8 C 198.38 -9.8 198.18 -9.6 198.18 -9.38 C 198.18 -9.34 198.2 -9.28 198.21 -9.24 L 201.49 0 Z M 210.95 0 L 216.59 0 C 216.83 0 217.01 -0.18 217.01 -0.42 C 217.01 -0.66 216.83 -0.84 216.59 -0.84 L 211.79 -0.84 L 211.79 -4.48 L 215.61 -4.48 C 215.85 -4.48 216.03 -4.66 216.03 -4.9 C 216.03 -5.14 215.85 -5.32 215.61 -5.32 L 211.79 -5.32 L 211.79 -8.96 L 216.59 -8.96 C 216.83 -8.96 217.01 -9.14 217.01 -9.38 C 217.01 -9.62 216.83 -9.8 216.59 -9.8 L 211.58 -9.8 C 211.25 -9.8 210.95 -9.51 210.95 -9.17 Z M 222.61 0 C 222.92 0 223.17 -0.25 223.17 -0.56 C 223.17 -0.87 222.92 -1.12 222.61 -1.12 C 222.31 -1.12 222.05 -0.87 222.05 -0.56 C 222.05 -0.25 222.31 0 222.61 0 Z" stroke-linecap="round" />
</g>
</g>
</g>
<g transform="matrix(3.2370202297857023 0 0 3.2370202297857023 647.9907214845624 318.6380102239972)" id="shape-51a55679-042f-4f63-8bc7-8f0e780a17d1"  >
<g style=""  paint-order="stroke"   >
		<g transform="matrix(1 0 0 1 0 0)" id="Layer_1"  >
<rect style="stroke: none; stroke-width: 0; stroke-dasharray: none; stroke-linecap: butt; stroke-dashoffset: 0; stroke-linejoin: miter; stroke-miterlimit: 4; fill: rgb(11,50,145); fill-rule: nonzero; opacity: 1;"  paint-order="stroke"  x="-100" y="-2.5" rx="0" ry="0" width="200" height="5" />
</g>
</g>
</g>
<g transform="matrix(3.2370202297857023 0 0 3.2370202297857023 639.7003479443288 628.6780038250209)" id="shape-cb3f4378-1e80-496d-8c9b-a6e934e8f8a5"  >
<g style=""  paint-order="stroke"   >
		<g transform="matrix(1 0 0 1 0 0)" id="Layer_1"  >
<rect style="stroke: none; stroke-width: 0; stroke-dasharray: none; stroke-linecap: butt; stroke-dashoffset: 0; stroke-linejoin: miter; stroke-miterlimit: 4; fill: rgb(11,50,145); fill-rule: nonzero; opacity: 1;"  paint-order="stroke"  x="-100" y="-2.5" rx="0" ry="0" width="200" height="5" />
</g>
</g>
</g>
</svg>